<?xml version="1.0" encoding="UTF-8"?>
<!-- Generated by Pixelmator Pro 2.4.5 -->
<svg width="283" height="108" viewBox="0 0 283 108" xmlns="http://www.w3.org/2000/svg" xmlns:xlink="http://www.w3.org/1999/xlink">
    <path id="Path" fill="#7ed957" stroke="none" d="M 91.375 87.015625 L 82.364594 31.041687 C 81.15625 23.526062 75.25 18.067719 68.328125 18.067719 L 62.515625 18.067719 L 62.515625 16.708344 C 62.515625 7.776062 55.1875 0.510437 46.177078 0.510437 C 37.171875 0.510437 29.84375 7.776062 29.84375 16.708344 L 29.84375 18.067719 L 24.03125 18.067719 C 17.104172 18.067719 11.203125 23.526062 9.989578 31.041687 L 0.979172 87.015625 C 0.177078 91.994812 1.526047 96.953125 4.682297 100.619797 C 7.395828 103.770844 11.067703 105.510422 15.015625 105.510422 L 26.229172 105.510422 C 31.583328 105.510422 36.510422 103.640625 40.375 100.526047 C 45.005203 96.791687 48.114578 91.270844 48.619797 85.036469 L 48.692703 85.036469 L 48.692703 83.291687 C 48.692703 83.276062 48.692703 83.255219 48.692703 83.234375 L 48.692703 77.098969 L 51.984375 77.098969 C 63.369781 77.098969 72.635406 67.911469 72.635406 56.619812 L 72.635406 48.369812 L 64.3125 48.369812 C 54.578125 48.369812 46.401047 55.083344 44.229172 64.088562 C 40.442703 59.354187 34.59375 56.3125 28.041672 56.3125 L 19.723953 56.3125 L 19.723953 64.5625 C 19.723953 75.848969 28.984375 85.036469 40.369797 85.036469 L 43.572922 85.036469 C 42.661453 93.729187 35.229172 100.526047 26.229172 100.526047 L 15.015625 100.526047 C 12.5625 100.526047 10.25 99.40625 8.505203 97.385437 C 6.338547 94.869812 5.385422 91.286469 5.947922 87.802094 L 14.958328 31.828125 C 15.776047 26.744812 19.59375 23.052094 24.03125 23.052094 L 68.328125 23.052094 C 72.765625 23.052094 76.583344 26.744812 77.401031 31.828125 L 86.411469 87.802094 C 86.973969 91.286469 86.015625 94.869812 83.848969 97.385437 C 82.109375 99.40625 79.796875 100.526047 77.338531 100.526047 L 45.088547 100.526047 C 43.239578 102.5 41.083328 104.1875 38.692703 105.510422 L 77.338531 105.510422 C 81.291656 105.510422 84.963531 103.770844 87.677094 100.619797 C 90.828125 96.953125 92.177094 91.994812 91.375 87.015625 Z M 64.3125 53.359375 L 67.604156 53.359375 L 67.604156 56.619812 C 67.604156 65.161469 60.598969 72.109375 51.984375 72.109375 L 48.692703 72.109375 L 48.692703 68.848969 C 48.692703 60.307312 55.697922 53.359375 64.3125 53.359375 Z M 24.75 64.5625 L 24.75 61.296875 L 28.041672 61.296875 C 36.65625 61.296875 43.661453 68.244812 43.661453 76.786469 L 43.661453 80.052094 L 40.369797 80.052094 C 31.760422 80.052094 24.75 73.098969 24.75 64.5625 Z M 34.869797 16.708344 C 34.869797 10.526062 39.942703 5.494812 46.177078 5.494812 C 52.411453 5.494812 57.484375 10.526062 57.484375 16.708344 L 57.484375 18.067719 L 34.869797 18.067719 Z"/>
    <g id="Tag">
        <path id="path1" fill="#e59b65" stroke="none" d="M 191.409164 66.765625 L 212.549789 85.114594 C 213.226868 85.697922 213.304993 86.71875 212.732071 87.40625 L 197.346664 105.854172 C 196.768539 106.546875 195.732086 106.640625 195.034164 106.0625 L 173.122711 87.786469 L 173.164368 71.432297 C 173.164368 70.640625 173.732086 69.963547 174.513336 69.822922 Z"/>
        <path id="path2" fill="#fed883" stroke="none" d="M 191.409164 66.765625 L 212.549789 85.114594 C 213.226868 85.697922 213.304993 86.71875 212.732071 87.40625 L 198.831039 104.072922 C 198.252914 104.765625 197.216461 104.859375 196.523743 104.28125 L 176.091461 87.239594 C 175.716461 86.927094 175.502914 86.463547 175.502914 85.973969 L 175.539368 70.447922 C 175.544586 69.630219 176.143539 68.942719 176.950836 68.828125 Z"/>
        <path id="path3" fill="#87d1ee" stroke="none" d="M 181.101868 85.828125 C 181.596664 91.244797 186.383118 95.239594 191.799789 94.75 C 197.216461 94.255219 201.211243 89.46875 200.721664 84.052094 C 200.232071 78.635422 195.440414 74.640625 190.023743 75.130219 C 184.607086 75.619797 180.612289 80.411469 181.101868 85.828125 Z"/>
        <path id="path4" fill="#9ed44a" stroke="none" d="M 193.591461 78.104172 C 193.502914 77.125 194.794586 76.213547 195.450836 75.875 C 196.028961 76.234375 197.476868 77.34375 198.607086 78.885422 C 200.862289 81.979172 201.127914 84.015625 200.570618 86.947922 C 200.138321 89.229172 197.867493 92 196.591461 93.078125 C 195.674789 92.0625 193.732086 89.713547 193.289368 88.432297 C 192.732086 86.833344 193.065414 85.979172 194.294586 85.869797 C 195.518539 85.760422 194.627914 85.015625 194.924789 83.755219 C 195.221664 82.489594 196.893539 82.75 196.820618 81.932297 C 196.747711 81.114594 193.700836 79.333344 193.591461 78.104172 Z"/>
        <path id="path5" fill="#9ed44a" stroke="none" d="M 188.091461 81.072922 C 188.034164 80.421875 184.919586 79.4375 183.372711 79.03125 C 182.768539 79.90625 181.445618 82.333344 181.028961 85.010422 C 180.612289 87.682297 182.935211 90.880219 184.148743 92.145844 C 184.419586 90.609375 185.028961 87.286469 185.263336 86.276047 C 185.565414 85.010422 187.607086 84.828125 187.976868 84.380219 C 188.351868 83.9375 188.164368 81.890625 188.091461 81.072922 Z"/>
        <path id="path6" fill="#ffffff" fill-rule="evenodd" stroke="none" d="M 205.075821 83.078125 C 204.784164 83.421875 204.831039 83.942719 205.179993 84.229172 L 207.851868 86.463547 C 208.200821 86.75 208.716446 86.703125 209.008118 86.359375 C 209.299789 86.010422 209.252914 85.489594 208.903946 85.203125 L 206.232071 82.96875 C 205.883118 82.682297 205.362289 82.729172 205.075821 83.078125 Z"/>
        <path id="path7" fill="#000000" fill-rule="evenodd" stroke="none" d="M 173.372711 61.854172 C 171.497711 61.822922 169.674789 62.432297 168.190414 63.572922 C 166.706039 64.71875 165.653961 66.328125 165.206039 68.145844 C 164.758118 69.963547 164.940414 71.880219 165.721664 73.583344 C 166.502914 75.286469 167.836243 76.671875 169.508118 77.515625 C 170.476868 78.005219 171.523743 78.296875 172.591461 78.385422 L 172.534164 87.510422 C 172.528961 88.255219 172.857086 88.958344 173.429993 89.432297 L 194.445618 106.963547 C 195.497711 107.84375 197.065414 107.697922 197.945618 106.645844 L 213.601868 87.875 C 214.471664 86.833344 214.341446 85.28125 213.310196 84.395844 L 192.528961 66.572922 C 191.956039 66.078125 191.195618 65.875 190.450836 66.015625 L 181.179993 67.765625 C 180.711243 66.192719 179.778961 64.78125 178.497711 63.734375 C 177.049789 62.541672 175.242493 61.880219 173.372711 61.854172 Z M 174.581039 76.614594 C 174.476868 76.640625 174.367493 76.65625 174.258118 76.677094 L 174.289368 71.4375 C 174.294586 71.041672 174.575836 70.697922 174.966461 70.625 L 190.758118 67.645844 C 191.008118 67.598969 191.263336 67.666672 191.450836 67.828125 L 212.232071 85.65625 C 212.575821 85.947922 212.617493 86.463547 212.331039 86.8125 L 196.669586 105.588547 C 196.377914 105.9375 195.857086 105.984375 195.508118 105.692719 L 174.487289 88.161469 C 174.299789 88.005219 174.190414 87.770844 174.190414 87.520844 L 174.247711 78.348969 C 174.471664 78.322922 174.695618 78.286469 174.919586 78.239594 C 176.752914 77.859375 178.403961 76.869797 179.601868 75.432297 C 179.893539 75.083344 179.846664 74.5625 179.497711 74.265625 C 179.143539 73.973969 178.622711 74.020844 178.331039 74.375 C 177.372711 75.520844 176.049789 76.3125 174.581039 76.614594 Z M 170.252914 76.041672 C 170.992493 76.411469 171.789368 76.640625 172.601868 76.723969 L 172.638336 71.427094 C 172.643539 70.234375 173.492493 69.21875 174.659164 69 L 179.539368 68.078125 C 179.153961 66.880219 178.429993 65.817719 177.445618 65.010422 C 176.289368 64.0625 174.846664 63.53125 173.346664 63.510422 C 171.846664 63.484375 170.388336 63.96875 169.200836 64.885422 C 168.013336 65.796875 167.174789 67.088547 166.815414 68.541672 C 166.456039 70 166.601868 71.53125 167.226868 72.890625 C 167.851868 74.255219 168.919586 75.364594 170.252914 76.041672 Z M 200.299789 84.307297 C 200.018539 81.234375 198.247711 78.661469 195.763336 77.229172 L 195.195618 77.6875 C 194.789368 78.015625 194.784164 78.630219 195.185211 78.96875 L 197.638336 81.010422 C 198.716461 81.911469 198.169586 83.671875 196.768539 83.796875 C 196.398743 83.828125 196.127914 84.15625 196.159164 84.526047 L 196.216461 85.161469 C 196.299789 86.036469 195.653961 86.807297 194.784164 86.885422 C 194.263336 86.932297 193.982086 87.520844 194.273743 87.953125 L 195.732086 90.135422 L 197.096664 92.09375 C 199.289368 90.239594 200.575821 87.385422 200.299789 84.307297 Z M 194.122711 80.239594 C 192.950836 79.260422 192.935211 77.473969 194.065414 76.473969 C 192.924789 76.098969 191.685211 75.942719 190.409164 76.057297 C 188.143539 76.265625 186.143539 77.28125 184.679993 78.796875 L 187.539368 79.697922 C 188.497711 80 189.174789 80.84375 189.268539 81.84375 L 189.372711 83.020844 C 189.461243 83.958344 189.008118 84.864594 188.206039 85.359375 L 186.575836 86.364594 C 186.372711 86.494797 186.232086 86.703125 186.195618 86.942719 L 185.388336 92.114594 C 187.179993 93.614594 189.539368 94.427094 192.049789 94.197922 C 193.393539 94.078125 194.643539 93.666672 195.742493 93.041672 L 194.362289 91.067719 L 192.893539 88.875 C 191.919586 87.416672 192.836243 85.447922 194.565414 85.244797 L 194.513336 84.677094 C 194.398743 83.453125 195.252914 82.369797 196.440414 82.171875 Z M 183.945618 90.604172 C 182.961243 89.291672 182.315414 87.703125 182.159164 85.947922 C 181.966461 83.84375 182.508118 81.838547 183.575836 80.1875 L 187.044586 81.276047 C 187.362289 81.375 187.586243 81.65625 187.617493 81.989594 L 187.726868 83.171875 C 187.752914 83.484375 187.601868 83.786469 187.336243 83.947922 L 185.706039 84.958344 C 185.086243 85.338547 184.669586 85.973969 184.560211 86.6875 Z M 190.258118 74.411469 C 196.179993 73.875 201.409164 78.239594 201.945618 84.161469 C 202.482071 90.078125 198.117493 95.3125 192.195618 95.848969 C 186.278961 96.385422 181.044586 92.020844 180.508118 86.098969 C 179.971664 80.177094 184.336243 74.947922 190.258118 74.411469 Z"/>
    </g>
    <g id="Text">
        <path id="path8" fill="#ffffff" stroke="none" d="M 114.243591 20.166534 L 95.95192 20.166534 L 95.95192 66.827988 L 114.243591 66.827988 L 114.243591 64.801956 L 97.977966 64.801956 L 97.977966 47.150909 L 110.191498 47.150909 L 110.191498 45.124863 L 97.977966 45.124863 L 97.977966 22.192581 L 114.243591 22.192581 Z"/>
        <path id="path9" fill="#ffffff" stroke="none" d="M 127.414917 67.468613 L 127.789917 67.468613 C 129.38887 67.468613 130.883667 67.093613 132.321167 66.239456 C 133.706589 65.442581 134.82637 64.322784 135.680542 62.937363 C 136.48262 61.656113 136.909714 60.109238 136.909714 58.400909 L 136.909714 57.817581 L 134.883667 57.817581 L 134.883667 58.400909 C 134.883667 59.682159 134.560745 60.854034 133.92012 61.921738 C 133.279495 62.989456 132.373245 63.843613 131.310745 64.479034 C 130.243042 65.119659 129.071167 65.442581 127.789917 65.442581 L 127.414917 65.442581 C 126.081573 65.442581 124.909714 65.119659 123.841995 64.479034 C 122.722214 63.947784 121.868042 63.093613 121.227417 61.921738 C 120.591995 60.854034 120.269089 59.682159 120.269089 58.400909 L 120.269089 28.697784 C 120.269089 27.468613 120.591995 26.296738 121.227417 25.124863 C 121.868042 24.057159 122.722214 23.202988 123.841995 22.562363 C 124.909714 21.979034 126.133667 21.656113 127.414917 21.656113 L 127.789917 21.656113 C 129.071167 21.656113 130.243042 21.979034 131.310745 22.619659 C 132.373245 23.255081 133.279495 24.109238 133.92012 25.176956 C 134.560745 26.244659 134.883667 27.416534 134.883667 28.697784 L 134.883667 29.281113 L 136.909714 29.281113 L 136.909714 28.697784 C 136.909714 27.098831 136.48262 25.604034 135.680542 24.166534 C 134.82637 22.775909 133.706589 21.656113 132.321167 20.859238 C 130.883667 20.057159 129.38887 19.630081 127.789917 19.630081 L 127.414917 19.630081 C 125.76387 19.630081 124.216995 20.057159 122.774292 20.859238 C 121.38887 21.713409 120.269089 22.775909 119.472214 24.166534 C 118.618042 25.604034 118.243042 27.098831 118.243042 28.697784 L 118.243042 58.400909 C 118.243042 60.109238 118.618042 61.656113 119.472214 62.937363 C 120.321167 64.322784 121.38887 65.390488 122.774292 66.239456 C 124.216995 67.093613 125.76387 67.468613 127.414917 67.468613 Z"/>
        <path id="path10" fill="#ffffff" stroke="none" d="M 150.558487 67.468613 L 150.98558 67.468613 C 152.79808 67.468613 154.402237 67.093613 155.839737 66.239456 C 157.225159 65.494659 158.402237 64.374863 159.36058 62.937363 C 160.214737 61.656113 160.64183 60.109238 160.64183 58.296738 L 160.64183 28.801956 C 160.64183 27.150909 160.214737 25.604034 159.36058 24.218613 C 158.506409 22.885284 157.334534 21.765488 155.839737 20.859238 C 154.45433 20.057159 152.79808 19.630081 150.98558 19.630081 L 150.558487 19.630081 C 148.79808 19.630081 147.199112 20.057159 145.761612 20.859238 C 144.26683 21.713409 143.094955 22.833206 142.240784 24.218613 C 141.334534 25.708206 140.907455 27.202988 140.907455 28.801956 L 140.907455 58.296738 C 140.907455 60.057159 141.334534 61.604034 142.240784 62.937363 C 143.199112 64.426956 144.376205 65.494659 145.761612 66.239456 C 147.251205 67.093613 148.855362 67.468613 150.558487 67.468613 Z M 150.98558 65.442581 L 150.558487 65.442581 C 149.17308 65.442581 147.89183 65.119659 146.719955 64.479034 C 145.54808 63.843613 144.589737 62.989456 143.949112 61.869659 C 143.256409 60.749863 142.933487 59.572784 142.933487 58.296738 L 142.933487 28.801956 C 142.933487 27.630081 143.256409 26.406113 143.949112 25.229034 C 144.532455 24.166534 145.438705 23.312363 146.719955 22.619659 C 147.89183 21.979034 149.17308 21.656113 150.558487 21.656113 L 150.98558 21.656113 C 152.370987 21.656113 153.652237 21.979034 154.824112 22.619659 C 156.001205 23.255081 156.959534 24.166534 157.600159 25.229034 C 158.240784 26.348831 158.61058 27.525909 158.61058 28.801956 L 158.61058 58.296738 C 158.61058 59.682159 158.240784 60.854034 157.600159 61.869659 C 156.855377 63.041534 155.89183 63.895706 154.824112 64.479034 C 153.652237 65.119659 152.370987 65.442581 150.98558 65.442581 Z"/>
        <path id="path11" fill="#ffffff" stroke="none" d="M 174.450928 67.359238 L 174.825928 67.359238 C 176.529053 67.359238 178.133209 66.932159 179.622803 66.083206 C 182.930084 64.213409 184.638428 61.229034 184.638428 57.067581 C 184.638428 55.572784 184.372803 54.031113 183.888428 52.536331 C 183.195709 50.562363 182.133209 48.588409 180.638428 46.671738 C 179.253006 44.963409 177.435303 43.364456 175.195709 41.921738 C 171.893631 39.895706 169.596756 37.708206 168.424881 35.468613 C 167.253006 33.281113 166.664459 31.364456 166.664459 29.708206 C 166.664459 27.895706 167.039459 26.406113 167.836334 25.176956 C 168.476959 24.166534 169.383209 23.255081 170.664459 22.510284 C 171.732178 21.869659 172.956131 21.551956 174.450928 21.551956 L 174.825928 21.551956 C 176.101959 21.551956 177.279053 21.869659 178.398834 22.510284 C 179.466553 23.150909 180.372803 24.057159 181.008209 25.124863 C 181.648834 26.296738 181.971756 27.468613 181.971756 28.697784 L 181.971756 29.281113 L 183.997803 29.281113 L 183.997803 28.697784 C 183.997803 27.098831 183.570709 25.551956 182.768631 24.057159 C 181.919678 22.671738 180.851959 21.604034 179.466553 20.749863 C 177.971756 19.952988 176.424881 19.525909 174.825928 19.525909 L 174.450928 19.525909 C 172.799881 19.525909 171.195709 19.952988 169.706131 20.749863 C 168.211334 21.551956 167.039459 22.671738 166.075928 24.109238 C 165.117584 25.604034 164.638428 27.525909 164.638428 29.765488 C 164.638428 31.791534 165.279053 34.031113 166.612381 36.484238 C 167.893631 38.989456 170.398834 41.390488 174.075928 43.630081 C 177.435303 45.760284 179.732178 48.005081 180.904053 50.458206 C 182.023834 52.854034 182.612381 55.093613 182.612381 57.176956 C 182.612381 60.484238 181.279053 62.880081 178.612381 64.322784 C 177.331131 65.015488 176.101959 65.333206 174.825928 65.333206 L 174.450928 65.333206 C 173.169678 65.333206 171.945709 65.015488 170.878006 64.374863 C 169.758209 63.734238 168.904053 62.880081 168.263428 61.760284 C 167.622803 60.692581 167.305084 59.468613 167.305084 58.187363 L 167.305084 57.656113 L 165.279053 57.656113 L 165.279053 58.187363 C 165.279053 59.843613 165.654053 61.390488 166.503006 62.775909 C 167.305084 64.213409 168.424881 65.333206 169.862381 66.135284 C 171.253006 66.989456 172.799881 67.359238 174.450928 67.359238 Z"/>
        <path id="path12" fill="#ffffff" stroke="none" d="M 188.636047 22.192581 L 198.234985 22.192581 L 198.234985 66.827988 L 200.261047 66.827988 L 200.261047 22.192581 L 209.859985 22.192581 L 209.859985 20.166534 L 188.636047 20.166534 Z"/>
        <path id="path13" fill="#ffffff" stroke="none" d="M 223.511261 67.468613 L 223.938324 67.468613 C 225.750824 67.468613 227.355011 67.093613 228.792511 66.239456 C 230.177917 65.494659 231.355011 64.374863 232.313324 62.937363 C 233.167511 61.656113 233.594574 60.109238 233.594574 58.296738 L 233.594574 28.801956 C 233.594574 27.150909 233.167511 25.604034 232.313324 24.218613 C 231.459167 22.885284 230.287292 21.765488 228.792511 20.859238 C 227.407074 20.057159 225.750824 19.630081 223.938324 19.630081 L 223.511261 19.630081 C 221.750824 19.630081 220.151886 20.057159 218.714386 20.859238 C 217.219574 21.713409 216.047699 22.833206 215.193542 24.218613 C 214.287292 25.708206 213.860199 27.202988 213.860199 28.801956 L 213.860199 58.296738 C 213.860199 60.057159 214.287292 61.604034 215.193542 62.937363 C 216.151886 64.426956 217.328949 65.494659 218.714386 66.239456 C 220.203949 67.093613 221.808136 67.468613 223.511261 67.468613 Z M 223.938324 65.442581 L 223.511261 65.442581 C 222.125824 65.442581 220.844574 65.119659 219.672699 64.479034 C 218.500824 63.843613 217.542511 62.989456 216.901886 61.869659 C 216.209167 60.749863 215.886261 59.572784 215.886261 58.296738 L 215.886261 28.801956 C 215.886261 27.630081 216.209167 26.406113 216.901886 25.229034 C 217.485199 24.166534 218.391449 23.312363 219.672699 22.619659 C 220.844574 21.979034 222.125824 21.656113 223.511261 21.656113 L 223.938324 21.656113 C 225.323761 21.656113 226.605011 21.979034 227.776886 22.619659 C 228.953949 23.255081 229.912292 24.166534 230.552917 25.229034 C 231.193542 26.348831 231.563324 27.525909 231.563324 28.801956 L 231.563324 58.296738 C 231.563324 59.682159 231.193542 60.854034 230.552917 61.869659 C 229.808136 63.041534 228.844574 63.895706 227.776886 64.479034 C 226.605011 65.119659 225.323761 65.442581 223.938324 65.442581 Z"/>
        <path id="path14" fill="#ffffff" stroke="none" d="M 248.309937 20.166534 L 237.591187 20.166534 L 237.591187 66.827988 L 239.617218 66.827988 L 239.617218 43.843613 L 243.83075 43.843613 L 255.45575 66.827988 L 257.747437 66.827988 L 246.070343 43.843613 L 248.309937 43.843613 C 249.908875 43.843613 251.45575 43.364456 252.950562 42.296738 C 254.335968 41.229034 255.403687 39.843613 256.257843 38.031113 C 257.054718 36.218613 257.481812 34.244659 257.481812 32.161331 L 257.481812 31.630081 C 257.481812 29.604034 257.054718 27.630081 256.257843 25.817581 C 255.403687 24.109238 254.335968 22.775909 252.950562 21.713409 C 251.45575 20.697784 249.908875 20.166534 248.309937 20.166534 Z M 248.309937 41.817581 L 239.617218 41.817581 L 239.617218 22.192581 L 248.309937 22.192581 C 249.591187 22.192581 250.815125 22.619659 251.934937 23.468613 C 252.950562 24.270706 253.804718 25.390488 254.497437 26.885284 C 255.138062 28.374863 255.45575 29.921738 255.45575 31.630081 L 255.45575 32.161331 C 255.45575 33.921738 255.138062 35.520706 254.497437 37.015488 C 253.856812 38.510284 252.950562 39.682159 251.882843 40.536331 C 250.710968 41.390488 249.539093 41.817581 248.309937 41.817581 Z"/>
        <path id="path15" fill="#ffffff" stroke="none" d="M 280.040436 20.166534 L 261.748779 20.166534 L 261.748779 66.827988 L 280.040436 66.827988 L 280.040436 64.801956 L 263.774811 64.801956 L 263.774811 47.150909 L 275.988373 47.150909 L 275.988373 45.124863 L 263.774811 45.124863 L 263.774811 22.192581 L 280.040436 22.192581 Z"/>
    </g>
    <path id="Rounded-Corner" fill="#000000" fill-rule="evenodd" stroke="none" d="M 164.810654 70.264717 C 164.810654 65.637314 168.561935 61.88604 173.189346 61.88604 L 173.189346 63.509815 C 169.458725 63.509815 166.434433 66.534103 166.434433 70.264717 Z"/>
</svg>
